<svg width="101" height="100" viewBox="0 0 101 100" fill="none" xmlns="http://www.w3.org/2000/svg">
<path d="M1 98.642C1.15802 98.6157 3.14591 98.5963 6.50098 98.5827M99.8212 98.6397C100.219 98.6405 100.612 98.6412 101 98.642L99.8212 98.6397ZM99.8212 98.6397C96.4425 98.6331 92.7422 98.6262 88.8193 98.6194M99.8212 98.6397V66.029H93.9273M58.3674 98.5753V66.029H93.9273M58.3674 98.5753C37.1081 98.5512 16.1502 98.5434 6.50098 98.5827M58.3674 98.5753C62.2434 98.5797 66.1294 98.5847 69.9587 98.59M6.50098 98.5827V29.2903H16.1277M93.9273 66.029V29.2903H87.0511M16.1277 29.2903V10.0368L33.4165 0.999512V29.2903M16.1277 29.2903H33.4165M33.4165 29.2903H48.7407M48.7407 29.2903V0.999512L87.0511 10.0368V29.2903M48.7407 29.2903H87.0511M69.9587 98.59V78.9956H79.389M69.9587 98.59C73.1546 98.5944 76.3109 98.5991 79.389 98.6039M88.8193 98.6194V78.9956H79.389M88.8193 98.6194C85.7931 98.6142 82.6346 98.6089 79.389 98.6039M79.389 98.6039V78.9956M16.1277 38.3276V47.1685M16.1277 52.473V61.3139M16.1277 67.7971V76.2451M16.1277 83.1213V92.1586M29.2908 38.3276V47.1685M29.2908 52.473V61.3139M29.2908 67.7971V76.2451M29.2908 83.1213V92.1586M42.2574 38.3276V47.1685M42.2574 52.473V61.3139M42.2574 67.7971V76.2451M42.2574 83.1213V92.1586M55.0275 38.3276V47.1685M55.0275 52.473V61.3139M66.2259 38.3276V47.1685M66.2259 52.473V61.3139M76.6385 38.3276V47.1685M76.6385 52.473V61.3139M85.6758 38.3276V47.1685M85.6758 52.473V61.3139" stroke="black" stroke-width="0.6"/>
</svg>
