<svg width="74" height="22" viewBox="0 0 74 22" fill="none" xmlns="http://www.w3.org/2000/svg">
<path d="M72.999 1V21H70.2656V1H72.999Z" fill="black" stroke="black" stroke-width="0.55325"/>
<path d="M54.751 21H52.0176V1H59.6321C63.9553 1 66.5213 3.26833 66.5213 7.00277C66.5213 9.76902 65.1268 11.7607 62.6165 12.5629L66.7166 21H63.6764L59.911 13.0885H54.751V21ZM54.751 3.4343V10.6819H59.6599C62.1981 10.6819 63.6485 9.32642 63.6485 7.03043C63.6485 4.70678 62.1423 3.4343 59.6321 3.4343H54.751Z" fill="black" stroke="black" stroke-width="0.55325"/>
<path d="M47.3135 1V21H44.5801V1H47.3135Z" fill="black" stroke="black" stroke-width="0.55325"/>
<path d="M26.9668 3.48963V1H41.8332V3.48963H35.7806V21H33.0472V3.48963H26.9668Z" fill="black" stroke="black" stroke-width="0.55325"/>
<path d="M11.1689 21H8.43555V1H11.1689L21.4889 16.4633V1H24.2223H27.1063V3.48833H24.2223V6V11V21H21.4889L11.1689 5.53665V21Z" fill="black" stroke="black" stroke-width="0.55325"/>
<path d="M3.7334 1V21H1V1H3.7334Z" fill="black" stroke="black" stroke-width="0.55325"/>
</svg>
