<svg width="102" height="100" viewBox="0 0 102 100" fill="none" xmlns="http://www.w3.org/2000/svg">
<path d="M71.23 63.7065C87.6715 63.7065 101 50.378 101 33.9365C101 17.495 87.6715 4.1665 71.23 4.1665C54.7884 4.1665 41.46 17.495 41.46 33.9365C41.46 50.378 54.7884 63.7065 71.23 63.7065Z" stroke="black" stroke-width="0.6"/>
<path d="M50.5395 95.8896C66.981 95.8896 80.3095 82.5611 80.3095 66.1196C80.3095 49.6781 66.981 36.3496 50.5395 36.3496C34.098 36.3496 20.7695 49.6781 20.7695 66.1196C20.7695 82.5611 34.098 95.8896 50.5395 95.8896Z" stroke="black" stroke-width="0.6"/>
<path d="M30.77 63.7065C47.2115 63.7065 60.54 50.378 60.54 33.9365C60.54 17.495 47.2115 4.1665 30.77 4.1665C14.3285 4.1665 1 17.495 1 33.9365C1 50.378 14.3285 63.7065 30.77 63.7065Z" stroke="black" stroke-width="0.6"/>
<path d="M1.11621 31.7525L23.415 53.9363M5.36907 18.3043L30.7713 43.8214M14.2196 9.22386L41.6908 37.6146M44.2195 21.4077L26.5184 4.51123" stroke="black" stroke-width="0.6"/>
</svg>
