<svg width="218" height="218" viewBox="0 0 218 218" fill="none" xmlns="http://www.w3.org/2000/svg">
<path d="M12.3913 146.5L1 154.5V140L12.3913 132.261M12.3913 146.5L66.5 108.5L120.609 146.5M12.3913 146.5V217H54.5M207.5 148V217H164M207.5 148L217 154.5V140L207.5 133.395M207.5 148L153 110.5L120.5 132.187M109 124.374L66.5 95.5L51 106.031M109 124.374L153 95.5L168.5 106.277M109 124.374L120.5 132.187M120.5 132.187L132 140V154.5L120.609 146.5M207.5 133.395V27H168.5M207.5 133.395L168.5 106.277M168.5 27V106.277M168.5 27V17.5M51 106.031V27M51 106.031L12.3913 132.261M51 17.5V1H168.5V17.5M51 17.5H168.5M51 17.5V27M51 27H12.3913V132.261M54.5 217V181H79V217M54.5 217H79M79 217H120.5M140.5 217V181H164V217M140.5 217H164M140.5 217H120.5M120.609 146.5L120.5 217M23.5 66H41.5V83H23.5V66ZM177.5 66H195.5V83H177.5V66ZM58.5 60H76.5V77H58.5V60ZM86.5 60H104.5V77H86.5V60ZM87.5 87H105.5V104H87.5V87ZM114.5 87H132.5V104H114.5V87ZM114.5 60H132.5V77H114.5V60ZM142.5 60H160.5V77H142.5V60ZM23.5 39H41.5V56H23.5V39ZM177.5 39H195.5V56H177.5V39ZM58.5 33H76.5V50H58.5V33ZM86.5 33H104.5V50H86.5V33ZM114.5 33H132.5V50H114.5V33ZM142.5 33H160.5V50H142.5V33ZM66.2058 130.021C59.8754 130.423 55.327 136.104 55.9982 142.166C56.5945 147.554 60.5808 151.616 66.2058 151.976C72.246 152.363 77.2279 147.951 77.8717 142.166C78.5859 135.748 72.9079 129.595 66.2058 130.021ZM151.773 130.021C145.443 130.423 140.895 136.104 141.566 142.166C142.162 147.554 146.148 151.616 151.773 151.976C157.814 152.363 162.795 147.951 163.439 142.166C164.153 135.748 158.475 129.595 151.773 130.021Z" stroke="black" stroke-opacity="0.1"/>
</svg>
